<svg width="73" height="76" viewBox="0 0 73 76" fill="none" xmlns="http://www.w3.org/2000/svg">
<path d="M0.781982 54.2511L16.8956 12.957L31.2189 54.2511H0.781982Z" fill="#507ECB"/>
<path d="M21.6277 0.249962L36.7183 42.5605L53.0877 0.249962H21.6277Z" fill="#ED3237"/>
<path d="M42.345 54.2511L56.4125 12.957L72.7819 54.2511H42.345Z" fill="#F9BC14"/>
<path d="M1.75917 74.9598C1.1193 74.9598 0.600586 74.4411 0.600586 73.8012V67.486C0.600586 66.5285 0.827266 65.6521 1.28063 64.8568C1.73399 64.0616 2.38884 63.4286 3.24518 62.9579C4.10153 62.4873 5.13418 62.252 6.34314 62.252C6.93083 62.252 7.51852 62.3331 8.10621 62.4954C8.6939 62.6415 9.23961 62.9011 9.74334 63.2744C10.2439 63.6292 10.645 64.1123 10.9466 64.7235C10.9501 64.7306 10.9573 64.7351 10.9652 64.7351V64.7351C10.9728 64.7351 10.9798 64.7309 10.9834 64.7243C11.3182 64.1127 11.736 63.6294 12.2368 63.2744C12.7406 62.9011 13.2863 62.6415 13.874 62.4954C14.4616 62.3331 15.0577 62.252 15.6622 62.252C16.8544 62.252 17.8786 62.4873 18.735 62.9579C19.5913 63.4286 20.2462 64.0616 20.6995 64.8568C21.1529 65.6521 21.3796 66.5285 21.3796 67.486V73.8012C21.3796 74.4411 20.8609 74.9598 20.221 74.9598V74.9598C19.5811 74.9598 19.0624 74.4411 19.0624 73.8012V67.486C19.0624 66.8693 18.9113 66.3094 18.609 65.8063C18.3068 65.3031 17.8954 64.9055 17.3749 64.6134C16.8712 64.3212 16.2919 64.1752 15.637 64.1752C14.999 64.1752 14.4113 64.3294 13.874 64.6377C13.3366 64.9299 12.9085 65.3275 12.5894 65.8306C12.2872 66.3175 12.1361 66.8693 12.1361 67.486V73.8012C12.1361 74.4411 11.6174 74.9598 10.9775 74.9598V74.9598C10.3376 74.9598 9.8189 74.4411 9.8189 73.8012V67.486C9.8189 66.8693 9.65939 66.3175 9.34036 65.8306C9.03812 65.3275 8.61834 64.9299 8.08102 64.6377C7.5605 64.3294 6.97281 64.1752 6.31796 64.1752C5.67989 64.1752 5.1006 64.3212 4.58008 64.6134C4.07634 64.9055 3.67336 65.3031 3.37112 65.8063C3.06888 66.3094 2.91776 66.8693 2.91776 67.486V73.8012C2.91776 74.4411 2.39904 74.9598 1.75917 74.9598V74.9598Z" fill="#4E4E4E"/>
<path d="M29.0331 75.252C27.8745 75.252 26.8335 75.0247 25.91 74.5703C25.0032 74.0996 24.2896 73.4505 23.7691 72.6227C23.2654 71.795 23.0135 70.8294 23.0135 69.7257V63.7153C23.0135 63.0684 23.5378 62.5441 24.1847 62.5441V62.5441C24.8315 62.5441 25.3558 63.0684 25.3558 63.7153V69.7014C25.3558 70.448 25.5238 71.0971 25.8596 71.649C26.1954 72.1845 26.6404 72.5984 27.1945 72.8905C27.7654 73.1827 28.3698 73.3287 29.0079 73.3287C29.6628 73.3287 30.2672 73.1827 30.8213 72.8905C31.3922 72.5984 31.8456 72.1845 32.1814 71.649C32.534 71.0971 32.7103 70.448 32.7103 69.7014V63.7153C32.7103 63.0684 33.2347 62.5441 33.8815 62.5441V62.5441C34.5283 62.5441 35.0527 63.0684 35.0527 63.7153V69.7257C35.0527 70.8294 34.7924 71.795 34.2719 72.6227C33.7514 73.4505 33.0378 74.0996 32.1311 74.5703C31.2243 75.0247 30.1917 75.252 29.0331 75.252Z" fill="#4E4E4E"/>
<path d="M43.7574 75.252C42.4477 75.252 41.2891 74.9679 40.2817 74.3999C39.2742 73.8156 38.4766 73.0366 37.8889 72.0628C37.3012 71.0728 37.0074 69.9692 37.0074 68.752C37.0074 67.5347 37.3012 66.4392 37.8889 65.4654C38.4766 64.4754 39.2742 63.6964 40.2817 63.1284C41.2891 62.5441 42.4477 62.252 43.7574 62.252C45.0671 62.252 46.2257 62.5441 47.2332 63.1284C48.2574 63.6964 49.055 64.4673 49.6259 65.4411C50.2136 66.4149 50.5074 67.5185 50.5074 68.752C50.5074 69.9692 50.2136 71.0728 49.6259 72.0628C49.055 73.0366 48.2574 73.8156 47.2332 74.3999C46.2257 74.9679 45.0671 75.252 43.7574 75.252ZM43.7574 73.3287C44.6473 73.3287 45.4197 73.1259 46.0746 72.7201C46.7294 72.3144 47.2416 71.7707 47.611 71.089C47.9804 70.3912 48.1651 69.6121 48.1651 68.752C48.1651 67.8918 47.9804 67.1209 47.611 66.4392C47.2416 65.7413 46.7294 65.1895 46.0746 64.7838C45.4197 64.378 44.6473 64.1752 43.7574 64.1752C42.8843 64.1752 42.1119 64.378 41.4402 64.7838C40.7854 65.1895 40.2733 65.7413 39.9039 66.4392C39.5344 67.1209 39.3497 67.8918 39.3497 68.752C39.3497 69.6121 39.5344 70.3912 39.9039 71.089C40.2733 71.7707 40.7854 72.3144 41.4402 72.7201C42.1119 73.1259 42.8843 73.3287 43.7574 73.3287Z" fill="#4E4E4E"/>
<path d="M53.544 74.9598C52.9041 74.9598 52.3854 74.4411 52.3854 73.8012V66.0741C52.3854 64.9704 52.7044 64.1103 53.3425 63.4935C53.9973 62.8606 54.8956 62.5441 56.0374 62.5441H57.7204C58.2515 62.5441 58.682 62.9746 58.682 63.5057V63.5057C58.682 64.0368 58.2515 64.4673 57.7204 64.4673H56.4656C55.9115 64.4673 55.4749 64.6215 55.1559 64.9299C54.8537 65.2382 54.7026 65.6683 54.7026 66.2201V73.8012C54.7026 74.4411 54.1838 74.9598 53.544 74.9598V74.9598Z" fill="#4E4E4E"/>
<path d="M65.8506 75.252C64.5409 75.252 63.3823 74.9679 62.3748 74.3999C61.3673 73.8156 60.5698 73.0366 59.9821 72.0628C59.3944 71.0728 59.1005 69.9692 59.1005 68.752C59.1005 67.5347 59.3944 66.4392 59.9821 65.4654C60.5698 64.4754 61.3673 63.6964 62.3748 63.1284C63.3823 62.5441 64.5409 62.252 65.8506 62.252C67.1603 62.252 68.3189 62.5441 69.3263 63.1284C70.3506 63.6964 71.1482 64.4673 71.7191 65.4411C72.3067 66.4149 72.6006 67.5185 72.6006 68.752C72.6006 69.9692 72.3067 71.0728 71.7191 72.0628C71.1482 73.0366 70.3506 73.8156 69.3263 74.3999C68.3189 74.9679 67.1603 75.252 65.8506 75.252ZM65.8506 73.3287C66.7405 73.3287 67.5129 73.1259 68.1677 72.7201C68.8226 72.3144 69.3347 71.7707 69.7041 71.089C70.0735 70.3912 70.2582 69.6121 70.2582 68.752C70.2582 67.8918 70.0735 67.1209 69.7041 66.4392C69.3347 65.7413 68.8226 65.1895 68.1677 64.7838C67.5129 64.378 66.7405 64.1752 65.8506 64.1752C64.9774 64.1752 64.205 64.378 63.5334 64.7838C62.8785 65.1895 62.3664 65.7413 61.997 66.4392C61.6276 67.1209 61.4429 67.8918 61.4429 68.752C61.4429 69.6121 61.6276 70.3912 61.997 71.089C62.3664 71.7707 62.8785 72.3144 63.5334 72.7201C64.205 73.1259 64.9774 73.3287 65.8506 73.3287Z" fill="#4E4E4E"/>
</svg>
